<?xml version="1.0" standalone="no"?><!DOCTYPE svg PUBLIC "-//W3C//DTD SVG 1.1//EN" "http://www.w3.org/Graphics/SVG/1.1/DTD/svg11.dtd"><svg t="1648960378044" class="icon" viewBox="0 0 1024 1024" version="1.1" xmlns="http://www.w3.org/2000/svg" p-id="4351" xmlns:xlink="http://www.w3.org/1999/xlink"><defs><style type="text/css"></style></defs><path d="M532.792 134.472c-12.176-35.376-31.984-35.336-44.008 0.096L420.88 334.592c-12.024 35.432-50.848 74.28-86.28 86.328l-198.536 67.52c-35.424 12.048-35.496 31.968-0.16 44.272l197.344 68.704c35.336 12.304 74.208 51.312 86.384 86.696l68.872 200.208c12.168 35.384 31.92 35.32 43.88-0.136l67.24-199.336c11.952-35.456 50.704-74.384 86.104-86.504l201.648-69.064c35.4-12.12 35.36-31.848-0.088-43.832L688.832 422.32c-35.448-11.992-74.416-50.744-86.592-86.12l-69.448-201.728z" fill="#ffffff" p-id="4352"></path></svg>