<?xml version="1.0" encoding="utf-8"?>
<!-- Generator: Adobe Illustrator 22.0.1, SVG Export Plug-In . SVG Version: 6.00 Build 0)  -->
<svg version="1.2" baseProfile="tiny" id="_x31_" xmlns="http://www.w3.org/2000/svg" xmlns:xlink="http://www.w3.org/1999/xlink" fill="#ffffff"
	 x="0px" y="0px" viewBox="0 0 42.2 10" xml:space="preserve">
<polygon points="21.2,0 20.3,3.8 16.7,5.4 20.5,6.3 22.1,10 23,6.1 26.7,4.5 22.8,3.6 "/>
<polygon points="7.9,2 8.5,4.7 6.7,6.8 9.4,6.2 11.5,8 10.9,5.3 12.7,3.2 10,3.8 "/>
<polygon points="2.8,3.3 1.5,4.3 0,3.9 1,5.1 0.6,6.7 1.8,5.7 3.4,6.1 2.4,4.8 "/>
<path d="M34.3,3h-3.1h-0.1c-1,0-1.9,0.8-1.9,1.9v0.3c0,1,0.8,1.9,1.9,1.9h0.1h3.1h1.9V5.1V4.9V3H34.3z"/>
<rect x="37.2" y="3.5" width="5" height="1"/>
<rect x="37.2" y="5.5" width="5" height="1"/>
</svg>
